<?xml version="1.0" encoding="UTF-8" standalone="no"?>
<!DOCTYPE svg PUBLIC "-//W3C//DTD SVG 1.1//EN" "http://www.w3.org/Graphics/SVG/1.1/DTD/svg11.dtd">
<svg version="1.1" xmlns="http://www.w3.org/2000/svg" xmlns:xlink="http://www.w3.org/1999/xlink" preserveAspectRatio="xMidYMid meet" viewBox="0 0 640 640" width="640" height="640"><defs><path d="M60.71 406.29L60.71 536.46L112.78 536.46L112.78 588.54L242.95 588.54L242.95 640.61L399.17 640.61L399.17 588.54L529.34 588.54L529.34 536.46L581.41 536.46L581.41 406.29L633.48 406.29L633.48 250.08L581.41 250.08L581.41 119.9L529.34 119.9L529.34 67.83L399.17 67.83L399.17 15.76L242.95 15.76L242.95 67.83L112.78 67.83L112.78 119.9L60.71 119.9L60.71 250.08L8.64 250.08L8.64 406.29L60.71 406.29Z" id="fc8mbItCS"></path><path d="M340.6 541.61L340.6 491.91L390.3 491.91L390.3 442.2L440.01 442.2L440.01 392.5L489.71 392.5L489.71 193.68L440.01 193.68L440.01 148.39L340.6 148.39L340.6 193.68L290.89 193.68L290.89 148.39L191.48 148.39L191.48 193.68L141.78 193.68L141.78 272.41L141.78 392.5L191.48 392.5L191.48 442.2L241.19 442.2L241.19 491.91L290.89 491.91L290.89 541.61L340.6 541.61Z" id="g2UzKsvGtJ"></path></defs><g><g><g><use xlink:href="#fc8mbItCS" opacity="1" fill="#00ccff" fill-opacity="1"></use></g><g><use xlink:href="#g2UzKsvGtJ" opacity="1" fill="#ff0000" fill-opacity="1"></use></g></g></g></svg>