<?xml version="1.0" encoding="utf-8"?>
<!-- Generator: Adobe Illustrator 14.0.0, SVG Export Plug-In . SVG Version: 6.00 Build 43363)  -->
<!DOCTYPE svg PUBLIC "-//W3C//DTD SVG 1.1//EN" "http://www.w3.org/Graphics/SVG/1.1/DTD/svg11.dtd">
<svg version="1.1" id="Layer_1" xmlns="http://www.w3.org/2000/svg" xmlns:xlink="http://www.w3.org/1999/xlink" x="0px" y="0px"
	 width="567px" height="111px" viewBox="0 0 567 111" enable-background="new 0 0 567 111" xml:space="preserve">
<g>
	<path fill="#FFFFFF" d="M48.83,42.939L37.538,81.803H26.939l2.053-7.066H14.859l9.239-31.798h10.6l-6.159,21.198h3.533
		l6.159-21.198H48.83z"/>
	<path fill="#FFFFFF" d="M77.095,42.939L65.803,81.803H41.071l11.292-38.864H77.095z M63.417,53.538h-3.533L54.75,71.204h3.533
		L63.417,53.538z"/>
	<path fill="#FFFFFF" d="M105.36,42.939L94.068,81.803H83.47l2.053-7.066H71.39l9.239-31.798h10.6l-6.159,21.198h3.533l6.159-21.198
		H105.36z"/>
	<path fill="#FFFFFF" d="M150.717,57.071l-3.08,10.6h-24.731l3.08-10.6H150.717z"/>
	<path fill="#FFFFFF" d="M204.286,42.939l-9.239,31.798h-14.132l-2.053,7.066h-10.6l11.292-38.864H204.286z M190.608,53.538h-3.533
		l-3.08,10.599h3.533L190.608,53.538z"/>
	<path fill="#FFFFFF" d="M232.551,42.939l-11.292,38.864H210.66l4.106-14.132h-3.533l-4.106,14.132h-10.6l11.292-38.864H232.551z
		 M218.872,53.538h-3.533l-1.026,3.533h3.533L218.872,53.538z"/>
	<path fill="#FFFFFF" d="M260.816,42.939l-3.079,10.599h-14.133l-5.133,17.666h3.533l4.106-14.132h10.599l-7.186,24.732h-24.731
		l11.292-38.864H260.816z"/>
	<path fill="#FFFFFF" d="M253.058,81.803l11.292-38.864h24.731l-3.08,10.599H271.87l-1.027,3.533h14.132l-3.079,10.6h-14.133
		l-1.025,3.533h14.131l-3.079,10.6H253.058z"/>
	<path fill="#FFFFFF" d="M302.521,81.803l11.292-38.864h24.731l-11.292,38.864h-10.599l8.213-28.265h-3.533l-8.213,28.265H302.521z"
		/>
	<path fill="#FFFFFF" d="M366.809,42.939l-11.292,38.864h-24.731l11.292-38.864H366.809z M353.13,53.538h-3.533l-5.133,17.666h3.533
		L353.13,53.538z"/>
	<path fill="#FFFFFF" d="M395.074,42.939l-3.079,10.599h-7.066l-8.212,28.265h-10.6l8.212-28.265h-7.066l3.08-10.599H395.074z"/>
	<path fill="#FFFFFF" d="M444.537,42.939l-3.079,10.599h-14.133l-1.026,3.533h14.132l-3.08,10.6H423.22l-4.106,14.132h-10.6
		l11.292-38.864H444.537z"/>
	<path fill="#FFFFFF" d="M472.802,42.939L461.51,81.803h-24.731l11.292-38.864H472.802z M459.124,53.538h-3.533l-5.133,17.666h3.533
		L459.124,53.538z"/>
	<path fill="#FFFFFF" d="M501.066,42.939l-11.292,38.864h-24.731l11.292-38.864h10.6l-8.213,28.265h3.533l8.213-28.265H501.066z"/>
	<path fill="#FFFFFF" d="M493.309,81.803l11.292-38.864h24.731L518.04,81.803h-10.599l8.212-28.265h-3.533l-8.212,28.265H493.309z"
		/>
	<path fill="#FFFFFF" d="M521.573,81.803l11.292-38.864h21.199l-1.026,3.533h3.532l-9.239,31.798h-3.532l-1.026,3.534H521.573z
		 M535.253,71.204h3.533l5.133-17.666h-3.533L535.253,71.204z"/>
</g>
</svg>
